# xmcd
#
# Track frame offsets: 
#        150
#        15662
#        33628
#        50755
#        70580
#        89918
#        108758
#        136328
#        151692
#        178738
#        193284
#        213409
#        230254
#        245854
#        261531
#        299590
#        313300
#
# Disc length: 4357 seconds
#
# Revision: 0
# Processed by: cddbd v1.5.2PL0 Copyright (c) Steve Scherf et al.
# Submitted via: ExactAudioCopyFreeDBPlugin 1.0
#
DISCID=0a110311
DTITLE=Trond Granlund - 50 år på veien Vol 2 CD1
DYEAR=2016
DGENRE=Country
TTITLE0=Svart magi
TTITLE1=Mess Around
TTITLE2=That Lucky Old Sun
TTITLE3=Till The Song Is Gone
TTITLE4=Hyllest
TTITLE5=Bror min og jeg
TTITLE6=Laura Mills
TTITLE7=Disney Jul
TTITLE8=Say We're Not Apart
TTITLE9=Railroad Man
TTITLE10=Driftin
TTITLE11=Himmelvogna
TTITLE12=Høyt. lavt and langt
TTITLE13=1958
TTITLE14=Kommer tid, kommer råd
TTITLE15=Mabelline
TTITLE16=Good Rockin Tonight
EXTD=
EXTT0=
EXTT1=
EXTT2=
EXTT3=
EXTT4=
EXTT5=
EXTT6=
EXTT7=
EXTT8=
EXTT9=
EXTT10=
EXTT11=
EXTT12=
EXTT13=
EXTT14=
EXTT15=
EXTT16=
PLAYORDER=
